<?xml version="1.0" standalone="no"?>
<!DOCTYPE svg PUBLIC "-//W3C//DTD SVG 20010904//EN"
 "http://www.w3.org/TR/2001/REC-SVG-20010904/DTD/svg10.dtd">
<svg version="1.0" xmlns="http://www.w3.org/2000/svg"
 width="1024.000000pt" height="1024.000000pt" viewBox="0 0 1024.000000 1024.000000"
 preserveAspectRatio="xMidYMid meet">

<g transform="translate(0.000000,1024.000000) scale(0.100000,-0.100000)"
fill="#000000" stroke="none">
<path d="M2983 7886 c-86 -21 -176 -72 -251 -141 -91 -85 -138 -157 -182 -280
l-35 -100 -3 -1602 c-3 -1787 -7 -1675 68 -1829 57 -118 175 -236 291 -293
149 -71 140 -71 827 -71 336 0 612 -1 612 -3 0 -1 -27 -81 -61 -177 -33 -96
-65 -192 -71 -212 l-10 -38 -132 0 c-117 0 -137 -3 -176 -22 -58 -30 -90 -78
-90 -135 0 -38 6 -50 44 -91 l44 -46 1228 2 c850 2 1234 6 1248 14 37 19 75
60 86 94 14 42 -2 75 -63 131 -54 50 -80 56 -225 51 l-111 -3 -6 45 c-4 24
-33 123 -66 219 -32 95 -59 174 -59 175 0 1 287 1 638 1 630 0 638 0 707 22
101 32 189 88 275 173 85 85 137 173 169 289 20 73 20 95 21 1700 0 1347 -2
1635 -13 1676 -43 158 -185 329 -336 405 -129 65 46 60 -2240 59 -1639 -1
-2087 -3 -2128 -13z m171 -376 c34 -12 66 -66 66 -109 0 -42 -42 -91 -77 -91
-54 0 -113 51 -113 98 0 48 46 101 97 112 1 0 13 -4 27 -10z m696 -5 c65 -34
78 -114 28 -162 -51 -48 -82 -48 -138 3 -47 43 -53 85 -19 128 36 46 80 56
129 31z m-332 -11 c26 -18 52 -65 52 -93 0 -22 -42 -76 -71 -92 -29 -15 -103
21 -123 59 -44 86 63 181 142 126z m2962 -24 c34 -34 23 -91 -24 -117 -27 -15
-63 3 -82 38 -35 68 52 133 106 79z m314 4 c26 -25 38 -53 31 -74 -18 -58 -79
-67 -119 -19 -31 37 -32 49 -5 83 24 30 69 35 93 10z m336 -1 c33 -22 40 -33
40 -65 0 -30 -40 -68 -72 -68 -28 0 -78 54 -78 84 0 26 41 66 69 66 9 0 28 -8
41 -17z m290 -1559 c0 -600 3 -1132 6 -1182 l7 -92 -2324 0 -2324 0 -2 1183
-1 1182 2319 0 2319 0 0 -1091z m5 -1634 c-4 -47 -13 -108 -21 -136 -27 -101
-110 -195 -220 -253 -38 -20 -70 -26 -163 -33 -64 -4 -976 -7 -2027 -5 l-1910
2 -75 37 c-157 78 -219 184 -219 377 l0 96 2321 0 2320 0 -6 -85z m-1825 -750
c7 -19 44 -115 83 -213 38 -97 68 -178 66 -180 -2 -1 -295 0 -650 3 l-647 5
73 202 c40 111 76 206 79 211 4 7 179 10 495 9 l489 -2 12 -35z"/>
<path d="M4340 6613 c0 -24 -364 -764 -639 -1296 l-143 -278 158 3 159 3 82
160 c45 88 84 165 86 170 2 6 114 10 304 11 l300 1 88 -173 89 -172 151 5 c82
3 151 7 153 8 1 1 -15 31 -37 67 -43 71 -248 478 -357 708 -38 80 -129 266
-202 415 -74 148 -143 293 -154 322 -20 55 -38 77 -38 46z m32 -640 c11 -27
45 -101 74 -166 30 -65 56 -128 60 -141 l5 -23 -160 1 c-156 1 -161 2 -155 21
24 79 141 355 151 355 2 0 13 -21 25 -47z"/>
<path d="M5341 5874 c-2 -390 0 -734 4 -766 7 -56 7 -56 44 -60 20 -1 164 -1
321 3 l285 5 93 31 c131 44 222 101 323 203 70 70 95 103 127 171 53 110 68
159 82 257 13 99 6 181 -27 287 -71 226 -202 389 -385 480 -163 80 -208 87
-558 92 l-305 5 -4 -708z m589 415 c129 -22 264 -114 341 -232 60 -93 85 -242
58 -357 -31 -137 -139 -263 -283 -334 -69 -33 -93 -40 -180 -47 -56 -4 -132
-8 -171 -9 l-70 0 0 497 0 498 125 -3 c69 -2 150 -7 180 -13z"/>
<path d="M5017 4181 c-40 -37 -42 -43 -42 -95 0 -63 19 -96 75 -129 51 -29
103 -17 152 34 49 52 52 97 8 157 -59 82 -127 94 -193 33z"/>
<path d="M3945 2780 c27 -27 51 -50 54 -50 3 0 -17 23 -44 50 -27 28 -51 50
-54 50 -3 0 17 -22 44 -50z"/>
</g>
</svg>
